<?xml version="1.0" standalone="no"?><!DOCTYPE svg PUBLIC "-//W3C//DTD SVG 1.1//EN" "http://www.w3.org/Graphics/SVG/1.1/DTD/svg11.dtd">
<svg t="1732798850738" class="icon" viewBox="0 0 1024 1024" version="1.1" xmlns="http://www.w3.org/2000/svg" p-id="2338"
     width="48" height="48"><path d="M1007.926303 505.328485c0 274.214788-222.270061 496.484848-496.484848 496.484848s-496.484848-222.270061-496.484849-496.484848c0-274.183758 222.270061-496.484848 496.484849-496.484849s496.484848 222.301091 496.484848 496.484849z" fill="#67C23A" p-id="2339"></path><path d="M387.754667 451.801212l-66.032485 181.123879h-10.860606l-62.122667-182.023758-29.975273 178.548364H174.017939l44.311273-270.646303H251.345455l68.63903 181.154909 65.59806-181.154909h33.450667l39.532606 270.646303h-44.745697l-26.065454-177.679515zM642.265212 629.449697h-41.270303v-15.639273c-12.163879 14.180848-30.285576 21.286788-54.30303 21.286788-24.048485 0-43.287273-9.24703-57.778424-27.803151-14.180848-18.525091-21.286788-40.246303-21.286788-65.163637 0-24.886303 7.230061-46.04897 21.721212-63.425939 14.770424-17.687273 33.574788-26.499879 56.475151-26.499879 24.327758 0 42.728727 7.230061 55.171879 21.721212v-16.073697h41.270303v171.597576z m-36.491636-86.016c0-15.918545-4.499394-28.951273-13.467152-39.098182a43.752727 43.752727 0 0 0-34.753939-15.639273c-13.901576 0-25.351758 5.057939-34.319515 15.204849-8.688485 9.836606-13.032727 23.024485-13.032728 39.532606s4.499394 29.820121 13.467152 39.96703c8.998788 10.146909 20.542061 15.204848 34.753939 15.204849 14.180848 0 25.63103-4.933818 34.319515-14.770424 8.688485-9.836606 13.032727-23.303758 13.032728-40.401455zM671.806061 457.852121h52.130909l35.653818 48.221091 30.409697-48.221091h53.434182l-59.950546 77.76194 71.245576 93.835636h-52.999758l-46.917818-64.294788-43.442424 64.294788h-53.868606l72.983273-93.401212-58.647273-78.196364z" fill="#FFFFFF" p-id="2340"></path></svg>