<?xml version="1.0" standalone="no"?><!DOCTYPE svg PUBLIC "-//W3C//DTD SVG 1.1//EN" "http://www.w3.org/Graphics/SVG/1.1/DTD/svg11.dtd"><svg t="1721871462640" class="icon" viewBox="0 0 1024 1024" version="1.1" xmlns="http://www.w3.org/2000/svg" p-id="11040" xmlns:xlink="http://www.w3.org/1999/xlink" width="200" height="200"><path d="M704 80c43.008 0 78.08 33.92 80 80v112H896c43.008 0 78.08 33.92 80 80V896c0 43.008-33.92 78.08-80 80H352c-43.008 0-78.08-33.92-80-80v-112H160c-43.008 0-78.08-33.92-80-80V160c0-43.008 33.92-78.08 80-80H704z m176 288h-512v512h512v-512zM672 480V576H768v96h-96V768H576v-96H480V576H576V480h96z m16-208v-96h-512v512h96V352c0-43.008 33.92-78.08 80-80h336z" fill="#000000" p-id="11041"></path></svg>