<?xml version="1.0" standalone="no"?><!DOCTYPE svg PUBLIC "-//W3C//DTD SVG 1.1//EN" "http://www.w3.org/Graphics/SVG/1.1/DTD/svg11.dtd"><svg t="1741503541844" class="icon" viewBox="0 0 1024 1024" version="1.1" xmlns="http://www.w3.org/2000/svg" p-id="4337" xmlns:xlink="http://www.w3.org/1999/xlink" width="48" height="48"><path d="M198.5 233.5h625.8v330H198.5z" fill="#5CBAEA" p-id="4338"></path><path d="M801.5 700H221.3c-25 0-45.5-20.5-45.5-45.5v-68.3H847v68.3c0 25-20.4 45.5-45.5 45.5zM591 702.8l56.9 130.8h-273l56.9-130.8H591z m0 0" fill="#FFFFFF" p-id="4339"></path><path d="M483 643.1c0 12.6 10.2 22.8 22.8 22.8 12.6 0 22.8-10.2 22.8-22.8 0-12.6-10.2-22.8-22.8-22.8-12.7 0.1-22.8 10.2-22.8 22.8z m0 0" fill="#194F82" p-id="4340"></path><path d="M824.3 188H198.5c-25 0-45.5 20.5-45.5 45.5v443.7c0 25 20.5 45.5 45.5 45.5h196.3L360.6 791h-48.4c-12.5 0-22.8 10.2-22.8 22.8 0 12.5 10.2 22.8 22.8 22.8h397.7c12.5 0 22.8-10.2 22.8-22.8 0-12.5-10.2-22.8-22.8-22.8h-48.4l-34.1-68.3h196.8c25 0 45.5-20.5 45.5-45.5V233.5c0.1-25-20.4-45.5-45.4-45.5z m0 489.2H198.5V609h625.8v68.2zM611 791H411.8l34.1-68.3h131.4L611 791zM198.5 563.5v-330h625.8v330H198.5z m0 0" fill="#194F82" p-id="4341"></path><path d="M847 687.5l-159.3 136-159.3-136V523.1l159.3-47.2L847 523.1v164.4z m0 0" fill="#FFC10D" p-id="4342"></path><path d="M687.8 830.8c-15.9 0-32.4-5.7-44.9-16.5L529 717.6c-14.8-12.5-23.3-30.7-23.3-49.5V554.9c0-29 19.3-54.6 48.4-63.1l113.8-33.6c13.1-4 26.7-4 39.8 0l113.8 33.6c29 8.5 48.4 33.6 48.4 63.1v113.2c0 18.8-8.5 37-23.3 49.5l-113.8 96.7c-12.6 10.9-29.1 16.5-45 16.5z m0-330.5c-2.3 0-4.6 0.6-6.8 1.1L567.2 535c-9.7 2.8-15.9 10.8-15.9 19.9v113.2c0 5.7 2.8 11.4 7.4 15.4l113.8 96.7c8.5 7.4 22.2 7.4 30.7 0L817 683.5c4.6-4 7.4-9.7 7.4-15.4V554.9c0-9.1-6.3-17.1-15.9-19.9l-113.8-33.6c-2.4-1.1-4.7-1.1-6.9-1.1z m0 0" fill="#194F82" p-id="4343"></path><path d="M710.5 568.7c0-12.5-10.2-22.8-22.8-22.8S665 556.1 665 568.7v90.5l-8.5-6.8c-9.7-8-23.9-5.7-31.9 4s-5.7 23.9 4 31.9l45.5 35.3c6.8 5.1 15.9 6.3 23.9 2.3 7.4-4 12.5-11.9 12.5-20.5V568.7z" fill="#194F82" p-id="4344"></path><path d="M665.3 568.5V705c0 8.5 5.1 16.5 12.5 20.5 8 4 17.1 2.8 23.9-2.3l45.5-35.3c5.7-4.6 8.5-11.4 8.5-18.2 0-5.1-1.7-9.7-4.6-14.2-8-9.7-22.2-11.9-31.9-4l-8.5 6.8v-89.9c0-12.5-10.2-22.8-22.8-22.8-12.4 0.2-22.6 10.4-22.6 22.9z" fill="#194F82" p-id="4345"></path></svg>