<?xml version="1.0" standalone="no"?><!DOCTYPE svg PUBLIC "-//W3C//DTD SVG 1.1//EN" "http://www.w3.org/Graphics/SVG/1.1/DTD/svg11.dtd"><svg t="1729148488619" class="icon" viewBox="0 0 1024 1024" version="1.1" xmlns="http://www.w3.org/2000/svg" p-id="18440" xmlns:xlink="http://www.w3.org/1999/xlink" width="48" height="48"><path d="M451.072 512L154.5216 372.736a51.9168 51.9168 0 0 0-51.2 0 56.576 56.576 0 0 0-27.904 48.5376v355.328a56.32 56.32 0 0 0 30.3616 50.6368l297.1136 139.4688c7.424 3.9936 15.7696 5.9904 24.2176 6.0928 9.3184-0.3072 18.432-3.072 26.4192-7.9872 16.9984-10.3424 27.4432-28.672 27.648-48.5376v-355.7888A57.5488 57.5488 0 0 0 451.072 512z m443.4944-231.0656a54.8352 54.8352 0 0 0-27.7504-72.3968l-312.6784-147.968a99.328 99.328 0 0 0-84.3776 0L157.184 208.5888a54.8352 54.8352 0 0 0 0 100.1472l328.8576 154.7776c8.0384 4.1984 16.896 6.5536 26.0096 6.7584 9.0112-0.3072 17.92-2.6624 25.9584-6.7584l328.9088-154.7776c12.2368-5.4272 22.1184-15.4624 27.648-27.7504z m53.9648 495.616V421.5296a56.9344 56.9344 0 0 0-27.8528-48.5376 51.456 51.456 0 0 0-50.176-1.1776L571.904 512c-17.664 9.8816-28.672 28.3136-29.0816 48.4864v356.8128c0.2048 19.8656 10.6496 38.1952 27.648 48.4864 8.0896 4.608 17.2032 7.0144 26.4192 7.0144a49.92 49.92 0 0 0 24.2176-6.144l298.3424-139.4176c18.3296-10.1376 29.5424-29.696 29.0816-50.688z" p-id="18441" fill="#04623c"></path></svg>