<?xml version="1.0" standalone="no"?><!DOCTYPE svg PUBLIC "-//W3C//DTD SVG 1.1//EN" "http://www.w3.org/Graphics/SVG/1.1/DTD/svg11.dtd"><svg t="1734686146767" class="icon" viewBox="0 0 1024 1024" version="1.1" xmlns="http://www.w3.org/2000/svg" p-id="4276" xmlns:xlink="http://www.w3.org/1999/xlink" width="48" height="48"><path d="M0 0m125.582536 0l772.834928 0q125.582536 0 125.582536 125.582536l0 772.834928q0 125.582536-125.582536 125.582536l-772.834928 0q-125.582536 0-125.582536-125.582536l0-772.834928q0-125.582536 125.582536-125.582536Z" fill="#75C8AA" p-id="4277"></path><path d="M91.549669 497.432426m69.949473 0l678.271277 0q69.949473 0 69.949473 69.949472l0-0.125582q0 69.949473-69.949473 69.949473l-678.271277 0q-69.949473 0-69.949473-69.949473l0 0.125582q0-69.949473 69.949473-69.949472Z" fill="#111111" p-id="4278"></path><path d="M103.103262 504.59063m62.791268 0l669.606083 0q62.791268 0 62.791268 62.791268l0-0.125582q0 62.791268-62.791268 62.791268l-669.606083 0q-62.791268 0-62.791268-62.791268l0 0.125582q0-62.791268 62.791268-62.791268Z" fill="#668594" p-id="4279"></path><path d="M114.154525 512.125583m55.256316 0l662.573461 0q55.256316 0 55.256316 55.256315l0 0q0 55.256316-55.256316 55.256316l-662.573461 0q-55.256316 0-55.256316-55.256316l0 0q0-55.256316 55.256316-55.256315Z" fill="#111111" p-id="4280"></path><path d="M126.210449 519.534952m47.721364 0l653.6571 0q47.721364 0 47.721364 47.721364l0 0.125582q0 47.721364-47.721364 47.721364l-653.6571 0q-47.721364 0-47.721364-47.721364l0-0.125582q0-47.721364 47.721364-47.721364Z" fill="#498996" p-id="4281"></path><path d="M877.319598 734.783419v20.721119H125.833701v-20.721119z" fill="#111111" p-id="4282"></path><path d="M143.917586 567.884229a37.674761 34.409615 90 1 0 68.81923 0 37.674761 34.409615 90 1 0-68.81923 0Z" fill="#6A6D76" p-id="4283"></path><path d="M781.500123 567.884229a37.674761 34.409615 90 1 0 68.819229 0 37.674761 34.409615 90 1 0-68.819229 0Z" fill="#6A6D76" p-id="4284"></path><path d="M699.369144 289.593328H520.91636l-25.995585 41.191072V497.306843h230.318371V330.7844l-25.870002-41.191072z" fill="#F6C37A" p-id="4285"></path><path d="M693.71793 296.12362H526.567574l-24.488594 38.679421v155.97351h216.001962V334.803041l-24.363012-38.679421z" fill="#DA9C44" p-id="4286"></path><path d="M619.498651 382.77557l-24.111847 41.944567-8.162865-11.051263 18.711798-32.400294 13.562914 1.50699zM619.875399 408.143243l-24.865343 41.567819 13.688497 1.758156L627.912681 419.320088l-8.037282-11.176845z" fill="#F6C37A" p-id="4287"></path><path d="M170.792249 573.91219h13.814079v160.871229h-13.814079zM810.258523 573.91219h13.814079v160.871229h-13.814079z" fill="#111111" p-id="4288"></path><path d="M164.88987 567.884229a14.693157 13.437331 90 1 0 26.874663 0 14.693157 13.437331 90 1 0-26.874663 0Z" fill="#111111" p-id="4289"></path><path d="M803.728232 567.884229a14.693157 13.437331 90 1 0 26.874662 0 14.693157 13.437331 90 1 0-26.874662 0Z" fill="#111111" p-id="4290"></path><path d="M739.429973 256.690704h10.925681v10.925681h-10.925681z" fill="#F45151" p-id="4291"></path><path d="M758.518519 256.690704h10.92568v10.925681h-10.92568zM777.732647 256.690704h10.92568v10.925681h-10.92568z" fill="#66F266" p-id="4292"></path><path d="M501.827815 329.151827h213.867059v9.418691H501.827815zM398.724552 289.593328h-178.327201l-26.121168 41.191072V497.306843h230.318372V330.7844l-25.870003-41.191072z" fill="#F6C37A" p-id="4293"></path><path d="M393.073338 296.12362H225.922983l-24.363012 38.679421v155.97351h215.876379V334.803041l-24.363012-38.679421z" fill="#DA9C44" p-id="4294"></path><path d="M318.979642 382.77557l-24.23743 41.944567-8.162864-11.051263 18.711797-32.400294 13.688497 1.50699zM319.230807 408.143243l-24.865342 41.567819 13.688496 1.758156 19.214128-32.14913-8.037282-11.176845zM201.183223 329.151827h216.253127v9.418691H201.183223z" fill="#F6C37A" p-id="4295"></path><path d="M839.016924 498.060338H684.424822l24.111847-285.700269h106.493991l23.986264 285.700269z" fill="#111111" p-id="4296"></path><path d="M830.602894 490.776551H692.964435l21.349031-270.630365h94.814815l21.474613 270.630365z" fill="#498996" p-id="4297"></path><path d="M725.239146 252.295315m1.632573 0l10.800099 0q1.632573 0 1.632572 1.632573l0 18.711798q0 1.632573-1.632572 1.632573l-10.800099 0q-1.632573 0-1.632573-1.632573l0-18.711798q0-1.632573 1.632573-1.632573Z" fill="#C1272D" p-id="4298"></path><path d="M751.485896 252.295315m1.883739 0l10.297768 0q1.883738 0 1.883738 1.883738l0 18.209468q0 1.883738-1.883738 1.883738l-10.297768 0q-1.883738 0-1.883739-1.883738l0-18.209468q0-1.883738 1.883739-1.883738Z" fill="#39B54A" p-id="4299"></path><path d="M777.732647 252.295315m2.260485 0l9.544273 0q2.260486 0 2.260486 2.260486l0 17.455972q0 2.260486-2.260486 2.260486l-9.544273 0q-2.260486 0-2.260485-2.260486l0-17.455972q0-2.260486 2.260485-2.260486Z" fill="#39B54A" p-id="4300"></path></svg>