<?xml version="1.0" standalone="no"?><!DOCTYPE svg PUBLIC "-//W3C//DTD SVG 1.1//EN" "http://www.w3.org/Graphics/SVG/1.1/DTD/svg11.dtd"><svg t="1729261369975" class="icon" viewBox="0 0 1024 1024" version="1.1" xmlns="http://www.w3.org/2000/svg" p-id="35828" xmlns:xlink="http://www.w3.org/1999/xlink" width="48" height="48"><path d="M1012.352 482.56L860.16 330.304a39.552 39.552 0 0 0-55.872 55.808l84.736 84.736H550.144V134.592l84.352 84.352a39.552 39.552 0 0 0 55.872-55.872L538.688 11.392 538.24 11.008a8 8 0 0 0-1.152-0.96C537.088 9.92 536.96 9.792 536.704 9.6L535.68 8.832 535.36 8.576a4.416 4.416 0 0 0-1.28-0.896L533.824 7.552l-1.28-0.96a39.04 39.04 0 0 0-17.92-6.4h-0.256L512.64 0h-3.968l-1.728 0.128h-0.256a39.04 39.04 0 0 0-17.856 6.4l-1.344 0.96-0.256 0.128c-0.384 0.256-0.768 0.64-1.28 0.896-0.064 0.128-0.192 0.256-0.32 0.256-0.384 0.192-0.768 0.64-0.96 0.832l-0.512 0.384-1.152 0.96-0.32 0.384L330.88 163.456a39.552 39.552 0 0 0 55.68 55.872l84.672-84.608v336.064h-336.64l84.736-84.672a39.552 39.552 0 0 0-55.872-55.872L11.712 482.176a39.424 39.424 0 0 0 0 55.68l151.04 151.104a39.424 39.424 0 1 0 55.808-55.872l-83.2-83.328h336v336.896l-85.952-85.952a39.552 39.552 0 0 0-55.872 55.872l153.344 153.344a39.424 39.424 0 0 0 55.68 0l152.32-152.32a39.552 39.552 0 0 0-55.808-55.872l-84.864 84.8V549.76h339.2L804.48 634.496a39.552 39.552 0 0 0 55.744 55.872l151.936-152a39.424 39.424 0 0 0 0.128-55.872z" fill="#40C4FF" p-id="35829"></path></svg>