<?xml version="1.0" standalone="no"?><!DOCTYPE svg PUBLIC "-//W3C//DTD SVG 1.1//EN" "http://www.w3.org/Graphics/SVG/1.1/DTD/svg11.dtd"><svg t="1743999182338" class="icon" viewBox="0 0 1024 1024" version="1.1" xmlns="http://www.w3.org/2000/svg" p-id="5094" xmlns:xlink="http://www.w3.org/1999/xlink" width="48" height="48"><path d="M664.192 426.752a38.4 38.4 0 0 1-37.952-32.192l-0.448-6.208V116.672a38.4 38.4 0 0 1 76.288-6.208l0.512 6.208v233.28h233.216a38.4 38.4 0 0 1 37.952 32.192l0.448 6.208a38.4 38.4 0 0 1-32.128 37.888l-6.272 0.512h-271.616zM359.808 426.752a38.4 38.4 0 0 0 37.952-32.192l0.448-6.208V116.672a38.4 38.4 0 0 0-76.288-6.208l-0.512 6.208v233.28H88.192a38.4 38.4 0 0 0-37.952 32.192l-0.448 6.208a38.4 38.4 0 0 0 32.128 37.888l6.272 0.512h271.616zM359.808 970.112a38.4 38.4 0 0 1-37.888-32.192l-0.512-6.208v-233.216l-233.216-0.064a38.4 38.4 0 0 1-37.952-32.192l-0.448-6.208a38.4 38.4 0 0 1 32.128-37.888l6.272-0.512h271.616a38.4 38.4 0 0 1 37.952 32.192l0.448 6.208v271.68a38.4 38.4 0 0 1-38.4 38.4zM664.192 970.112a38.4 38.4 0 0 0 37.888-32.192l0.512-6.208v-233.216l233.216-0.064a38.4 38.4 0 0 0 37.952-32.192l0.448-6.208a38.4 38.4 0 0 0-32.128-37.888l-6.272-0.512h-271.616a38.4 38.4 0 0 0-37.952 32.192l-0.448 6.208v271.68a38.4 38.4 0 0 0 38.4 38.4z" fill="#04623c" p-id="5095"></path><path d="M908.672 89.536a38.4 38.4 0 0 1 58.752 48.96l-4.48 5.312-271.616 271.68a38.4 38.4 0 0 1-58.752-48.96l4.48-5.312 271.616-271.68zM115.328 89.536a38.4 38.4 0 0 0-58.752 48.96l4.48 5.312 271.616 271.68a38.4 38.4 0 0 0 58.752-48.96l-4.48-5.312-271.616-271.68zM332.672 632.896a38.4 38.4 0 0 1 58.752 48.96l-4.48 5.312-271.616 271.68a38.4 38.4 0 0 1-58.752-48.96l4.48-5.312 271.616-271.68zM691.328 632.896a38.4 38.4 0 0 0-58.752 48.96l4.48 5.312 271.616 271.68a38.4 38.4 0 0 0 58.752-48.96l-4.48-5.312-271.616-271.68z" fill="#04623c" p-id="5096"></path></svg>