<?xml version="1.0" standalone="no"?><!DOCTYPE svg PUBLIC "-//W3C//DTD SVG 1.1//EN" "http://www.w3.org/Graphics/SVG/1.1/DTD/svg11.dtd"><svg t="1729305848571" class="icon" viewBox="0 0 1041 1024" version="1.1" xmlns="http://www.w3.org/2000/svg" p-id="37947" xmlns:xlink="http://www.w3.org/1999/xlink" width="48.796875" height="48"><path d="M415.750834 100.805339c170.856507 0 310.389321 134.407119 310.389322 307.541713s-149.214683 290.456062-319.501669 290.456063S100.805339 571.230256 100.805339 398.665184c0.569522-173.704116 144.658509-298.429366 314.945495-297.859845z m142.949945 517.125695l50.68743-51.826473 415.750834 354.812013-103.652947 103.083426-362.785317-406.068966z" fill="#29BE96" p-id="37948"></path><path d="M242.046719 189.650723c127.003337-67.773081 296.151279-14.238042 378.162402 119.599555s46.131257 297.290323-80.87208 364.493882c-127.003337 67.773081-296.151279 14.238042-378.162403-119.599555s-45.561735-296.720801 80.872081-364.493882z" fill="#59D5B4" p-id="37949"></path><path d="M387.27475 149.214683c13.098999 0 23.919911 10.820912 23.919911 23.919911 0 13.098999-10.820912 23.919911-23.919911 23.919911-13.098999 0-23.919911-10.820912-23.919911-23.919911 0-13.098999 10.820912-23.919911 23.919911-23.919911z" fill="#EB4545" p-id="37950"></path><path d="M495.483871 213.570634m-38.157953 0a38.157953 38.157953 0 1 0 76.315906 0 38.157953 38.157953 0 1 0-76.315906 0Z" fill="#FFFFFF" p-id="37951"></path></svg>