<?xml version="1.0" standalone="no"?><!DOCTYPE svg PUBLIC "-//W3C//DTD SVG 1.1//EN" "http://www.w3.org/Graphics/SVG/1.1/DTD/svg11.dtd"><svg t="1729173893968" class="icon" viewBox="0 0 1228 1024" version="1.1" xmlns="http://www.w3.org/2000/svg" p-id="33591" xmlns:xlink="http://www.w3.org/1999/xlink" width="57.5625" height="48"><path d="M0 0h1228.8v1024H0z" fill="#D8D8D8" fill-opacity="0" p-id="33592"></path><path d="M512 887.466667C304.64 887.466667 136.533333 719.36 136.533333 512S304.64 136.533333 512 136.533333h204.8c207.36 0 375.466667 168.106667 375.466667 375.466667s-168.106667 375.466667-375.466667 375.466667z" fill="#2BC9A7" p-id="33593"></path><path d="M421.922133 579.6864l124.8256 124.791467-143.189333 45.431466a21.572267 21.572267 0 0 1-27.067733-27.067733l45.431466-143.1552z m14.506667-45.738667l37.102933-116.8384c4.232533-13.312 11.605333-25.463467 21.504-35.362133l89.736534-89.736533c25.258667-25.258667 66.218667-25.258667 91.511466 0l158.1056 158.1056c25.258667 25.258667 25.258667 66.218667 0 91.511466l-89.770666 89.770667a87.381333 87.381333 0 0 1-35.328 21.504l-116.8384 37.0688-155.989334-155.989333z" fill="#FFFFFF" p-id="33594"></path></svg>