<?xml version="1.0" standalone="no"?><!DOCTYPE svg PUBLIC "-//W3C//DTD SVG 1.1//EN" "http://www.w3.org/Graphics/SVG/1.1/DTD/svg11.dtd"><svg t="1731945503106" class="icon" viewBox="0 0 1024 1024" version="1.1" xmlns="http://www.w3.org/2000/svg" p-id="7494" xmlns:xlink="http://www.w3.org/1999/xlink" width="48" height="48"><path d="M448.2 788.5h-64v-64h64v64z m-128 0h-64v-64h64v64z m-128 0h-64v-64h64v64zM128 724.7H64v-64h64v64z m0-127.9H64v-64h64v64z m832-62.3h-64v-64h64v64z m-832-65.6H64v-64h64v64z m832-62.3h-64v-64h64v64zM128 341H64v-64h64v64z m832-62.3h-64v-64h64v64z m-832-65.6H64v-64h64v64z m832-62.3h-64V118h0.8V86H960v64.8z m-127.2-0.8h-64V86h64v64z m-128 0h-64V86h64v64z m-128 0h-64V86h64v64z m-128 0h-64V86h64v64z m-128 0h-64V86h64v64z m-128 0h-64V86h64v64z" fill="#727272" p-id="7495"></path><path d="M423.2 411.2L897 603.9V150.4H128v574.3h422.7z" fill="#BFD1EB" p-id="7496"></path><path d="M950 892.8L767.3 710.1l110.9-44.8-338.6-137.7 137.7 338.6 44.8-110.9L904.8 938z" fill="#497CAD" p-id="7497"></path></svg>