<?xml version="1.0" standalone="no"?><!DOCTYPE svg PUBLIC "-//W3C//DTD SVG 1.1//EN" "http://www.w3.org/Graphics/SVG/1.1/DTD/svg11.dtd"><svg t="1729156783027" class="icon" viewBox="0 0 1024 1024" version="1.1" xmlns="http://www.w3.org/2000/svg" p-id="26596" xmlns:xlink="http://www.w3.org/1999/xlink" width="48" height="48"><path d="M932.571429 474.88H549.302857V91.428571c100.114286 5.997714 194.084571 47.963429 264.740572 118.619429 70.564571 70.564571 112.530286 164.534857 118.528 264.832z" fill="#F9BA32" p-id="26597"></path><path d="M190.573714 792.685714C126.665143 718.811429 91.428571 625.115429 91.428571 528.091429c0-108.086857 42.057143-209.627429 118.528-286.006858a404.224 404.224 0 0 1 257.024-117.065142v391.990857L190.573714 792.685714z" fill="#F65F0A" p-id="26598"></path><path d="M496.146286 932.571429c108.013714 0 209.462857-42.057143 285.769143-118.363429a403.858286 403.858286 0 0 0 117.138285-257.188571l-390.180571-1.243429L231.314286 833.426286C305.243429 897.426286 398.994286 932.571429 495.908571 932.571429h0.237715z" fill="#59BF92" p-id="26599"></path></svg>