<?xml version="1.0" standalone="no"?><!DOCTYPE svg PUBLIC "-//W3C//DTD SVG 1.1//EN" "http://www.w3.org/Graphics/SVG/1.1/DTD/svg11.dtd">
<svg t="1733213580878" class="icon" viewBox="0 0 1024 1024" version="1.1" xmlns="http://www.w3.org/2000/svg"
     p-id="16492"
     width="48" height="48"><path d="M768 53.333333a32 32 0 1 1 0 64H256A138.666667 138.666667 0 0 0 117.333333 256v512A138.666667 138.666667 0 0 0 256 906.666667h512A138.666667 138.666667 0 0 0 906.666667 768V256a32 32 0 1 1 64 0v512A202.666667 202.666667 0 0 1 768 970.666667H256A202.666667 202.666667 0 0 1 53.333333 768V256A202.666667 202.666667 0 0 1 256 53.333333h512zM354.346667 295.808L512 453.461333l157.696-157.653333a41.429333 41.429333 0 0 1 54.613333-3.413333l3.882667 3.413333a41.386667 41.386667 0 0 1 0 58.538667l-157.653333 157.610666 157.696 157.696c14.848 14.933333 16 38.4 3.413333 54.613334l-3.413333 3.882666a41.386667 41.386667 0 0 1-58.581334 0L512 570.496l-157.653333 157.696a41.429333 41.429333 0 0 1-54.613334 3.413333l-3.882666-3.413333a41.386667 41.386667 0 0 1 0-58.538667l157.610666-157.696-157.653333-157.653333a41.386667 41.386667 0 0 1-3.413333-54.570667l3.413333-3.882666a41.386667 41.386667 0 0 1 58.538667 0z" p-id="16493" fill="#1296db"></path></svg>